<svg xmlns="http://www.w3.org/2000/svg" version="1.1" xmlns:xlink="http://www.w3.org/1999/xlink" xmlns:svgjs="http://svgjs.dev/svgjs" width="1500" height="1500" viewBox="0 0 1500 1500"><g transform="matrix(1,0,0,1,0,0)"><svg viewBox="0 0 280 280" data-background-color="#000000" preserveAspectRatio="xMidYMid meet" height="1500" width="1500" xmlns="http://www.w3.org/2000/svg" xmlns:xlink="http://www.w3.org/1999/xlink"><g id="tight-bounds" transform="matrix(1,0,0,1,0,0)"><svg viewBox="0 0 280 280" height="280" width="280"><g><svg viewBox="0 0 280 280" height="280" width="280"><g><svg viewBox="0 0 280 280" height="280" width="280"><g id="textblocktransform"><svg viewBox="0 0 280 280" height="280" width="280" id="textblock"><g><svg viewBox="0 0 280 280" height="280" width="280"><g transform="matrix(1,0,0,1,57.50420886156945,57.50420886156945)"><svg viewBox="0 0 164.9915822768611 164.9915822768611" height="164.9915822768611" width="164.9915822768611"><g id="icon-0"><circle r="82" cx="82.49579113843055" cy="82.49579113843055" fill="#ffa458" data-fill-palette-color="accent"></circle><svg xmlns="http://www.w3.org/2000/svg" xmlns:xlink="http://www.w3.org/1999/xlink" version="1.1" x="24.74873734152917" y="24.748737341529164" viewBox="21.000488642026102 12.933523875316425 467.9205167545898 485.5174761246836" style="enable-background:new 0 0 512 512;" xml:space="preserve" height="115.49410759380275" width="115.49410759380275" class="icon-jxe-0" data-fill-palette-color="quaternary" id="jxe-0"><g fill="#ffffff" data-fill-palette-color="quaternary"><g fill="#ffffff" data-fill-palette-color="quaternary"><g fill="#ffffff" data-fill-palette-color="quaternary"><g fill="#ffffff" data-fill-palette-color="quaternary"><path d="M445.53 368.939C436.599 368.929 427.05 367.629 417.139 365.08 407.049 362.49 396.819 358.67 386.729 353.71 373.78 347.33 362.269 339.68 352.49 330.96 342.729 322.22 335.479 313.12 330.95 303.92 327.649 297.16 325.97 290.56 325.96 284.319 325.95 279.42 327.04 274.62 329.109 270.45 330.849 266.88 333.33 263.67 336.46 260.92 339.359 258.359 342.77 256.25 346.58 254.63 353.63 251.61 361.76 250.14 371.43 250.13 380.34 250.14 389.88 251.44 399.781 253.98 409.85 256.56 420.081 260.38 430.161 265.33 435.11 267.76 437.15 273.769 434.721 278.72A9.96 9.96 0 0 1 425.742 284.3C424.202 284.3 422.721 283.96 421.332 283.28 404.401 274.92 386.271 270.13 371.571 270.13H371.311C364.721 270.13 358.742 271.15 354.471 273 350.731 274.64 348.371 276.64 347.041 279.3 346.311 280.8 345.961 282.39 345.961 284.32 345.951 286.491 346.451 290.121 348.911 295.121 351.051 299.511 354.39 304.261 358.57 308.871 367.68 318.971 380.82 328.52 395.56 335.77 412.51 344.14 430.67 348.94 445.39 348.94H445.63C452.22 348.94 458.21 347.92 462.48 346.07 466.22 344.43 468.581 342.44 469.9 339.8 469.911 339.79 469.911 339.78 469.921 339.77V339.76A9.94 9.94 0 0 1 478.931 334.12C480.441 334.12 481.911 334.46 483.291 335.13A10.04 10.04 0 0 1 488.921 344.16C488.921 345.67 488.581 347.12 487.921 348.49 487.9 348.53 487.871 348.58 487.851 348.62 486.101 352.189 483.631 355.399 480.501 358.149 477.601 360.71 474.19 362.83 470.381 364.45 463.319 367.46 455.189 368.93 445.53 368.939M464.22 311.78C461.45 311.78 458.87 310.679 456.97 308.67 455.13 306.73 454.15 304.19 454.22 301.52S455.4 296.371 457.34 294.531A9.94 9.94 0 0 1 464.22 291.791C466.991 291.791 469.57 292.891 471.47 294.9L471.48 294.911C475.27 298.911 475.1 305.241 471.1 309.041A9.95 9.95 0 0 1 464.22 311.78" fill="#ffffff" data-fill-palette-color="quaternary"></path></g><g fill="#ffffff" data-fill-palette-color="quaternary"><path d="M442.146 339.072C437.276 339.072 431.753 337.676 426.598 335.138 421.642 332.7 419.601 326.706 422.039 321.751S430.469 314.751 435.426 317.192C438.545 318.726 440.852 319.015 441.823 319.062 444.761 316.052 449.414 315.119 453.395 317.08 458.35 319.518 460.39 325.513 457.951 330.468 455.261 335.937 449.5 339.072 442.146 339.072" fill="#ffffff" data-fill-palette-color="quaternary"></path></g><g fill="#ffffff" data-fill-palette-color="quaternary"><path d="M109.261 124.379H79.913C74.39 124.379 69.913 119.902 69.913 114.379V45.901C69.913 40.378 74.39 35.901 79.913 35.901H109.261C114.784 35.901 119.261 40.378 119.261 45.901V114.379C119.261 119.902 114.784 124.379 109.261 124.379M89.913 104.379H99.261V55.901H89.913z" fill="#ffffff" data-fill-palette-color="quaternary"></path></g><g fill="#ffffff" data-fill-palette-color="quaternary"><path d="M79.913 104.814H31A10 10 0 0 1 22.68 89.267L42.245 59.919A10 10 0 0 1 50.565 55.466H79.913C85.436 55.466 89.913 59.943 89.913 65.466V94.814C89.913 100.337 85.436 104.814 79.913 104.814M49.686 84.814H69.914V75.466H55.917z" fill="#ffffff" data-fill-palette-color="quaternary"></path></g><g fill="#ffffff" data-fill-palette-color="quaternary"><g fill="#ffffff" data-fill-palette-color="quaternary"><path d="M378.895 489.403C375.055 489.403 371.395 487.18 369.743 483.443 367.511 478.391 369.796 472.486 374.847 470.254 409.316 455.019 425.101 428.321 424.511 386.244 424.063 378.476 425.077 372.247 427.019 367.249 413.997 364.955 400.24 360.364 386.727 353.71 373.834 347.359 362.179 339.566 352.609 331.04V374.352C352.609 396.433 334.644 414.397 312.562 414.397 297.249 414.397 283.28 404.795 277.801 390.505 275.824 385.349 278.403 379.566 283.56 377.588 288.714 375.61 294.499 378.189 296.477 383.347 299.01 389.956 305.474 394.397 312.562 394.397 323.616 394.397 332.609 385.405 332.609 374.352V304.32C332.609 299.848 335.579 295.92 339.88 294.699A10 10 0 0 1 351.12 299.07C359.334 312.388 375.948 326.106 395.562 335.767 414.098 344.894 433.567 349.673 448.935 348.847A9.986 9.986 0 0 1 459.282 356.929 10 10 0 0 1 452.709 368.292C449.538 369.38 443.637 371.403 444.488 385.259 444.497 385.412 444.503 385.566 444.506 385.719 444.904 411.775 439.47 433.813 428.352 451.22 418.165 467.169 402.884 479.727 382.933 488.546A10 10 0 0 1 378.895 489.403" fill="#ffffff" data-fill-palette-color="quaternary"></path></g><g fill="#ffffff" data-fill-palette-color="quaternary"><path d="M274.88 351.87C274.74 346.349 279.109 341.76 284.63 341.63 290.15 341.49 294.74 345.859 294.87 351.38 295.01 356.9 290.64 361.49 285.12 361.62H284.87C279.46 361.62 275.01 357.3 274.88 351.87M273.77 316.49C273.76 316.359 273.76 316.229 273.76 316.099 273.76 310.749 277.99 306.319 283.38 306.12 288.9 305.91 293.54 310.22 293.75 315.729 293.76 315.859 293.76 315.99 293.76 316.12 293.76 321.47 289.531 325.899 284.14 326.099 284.01 326.109 283.88 326.109 283.76 326.109 278.399 326.109 273.97 321.88 273.77 316.49" fill="#ffffff" data-fill-palette-color="quaternary"></path></g><g fill="#ffffff" data-fill-palette-color="quaternary"><path d="M283.75 326.1C281.16 326.1 278.7 325.11 276.83 323.31A9.9 9.9 0 0 1 273.769 316.48C272.809 291.06 271.54 265.161 270.299 240.1 268.399 201.37 266.429 161.32 265.569 121.79 265.439 115.94 264.979 110.14 264.2 104.57 263.83 101.92 264.51 99.29 266.109 97.16A9.94 9.94 0 0 1 272.71 93.28 9.5 9.5 0 0 1 274.109 93.18C279.059 93.18 283.309 96.88 284 101.79 284.89 108.11 285.42 114.7 285.56 121.36 286.411 160.46 288.371 200.36 290.27 238.95 291.51 264.09 292.791 290.09 293.75 315.71V315.73C293.96 321.241 289.649 325.89 284.14 326.1zM264.67 79.04C260.68 79.04 257.08 76.68 255.49 73.02A9.9 9.9 0 0 1 255.36 65.37 9.9 9.9 0 0 1 260.68 59.87 10 10 0 0 1 273.84 65.06V65.07C274.9 67.52 274.94 70.23 273.96 72.71A9.9 9.9 0 0 1 268.64 78.21C267.37 78.76 266.04 79.04 264.67 79.04M245.4 49.45C242.76 49.44 240.26 48.42 238.38 46.57 238.36 46.55 238.34 46.53 238.33 46.51L238.31 46.5C234.45 42.63 234.42 36.32 238.26 32.42A9.9 9.9 0 0 1 245.39 29.43C248.03 29.43 250.52 30.45 252.4 32.3 252.41 32.32 252.42 32.32 252.42 32.33A9.9 9.9 0 0 1 255.4 39.49 9.9 9.9 0 0 1 252.52 46.46 9.9 9.9 0 0 1 245.4 49.45" fill="#ffffff" data-fill-palette-color="quaternary"></path></g><g fill="#ffffff" data-fill-palette-color="quaternary"><path d="M269.973 476.463A9.96 9.96 0 0 1 263.663 474.216C256.39 468.292 249.805 461.355 244.089 453.595 225.883 428.879 216.652 404.88 216.652 382.266V329.596C216.652 324.074 221.129 319.596 226.652 319.596 231.926 319.596 236.217 315.305 236.217 310.032S231.926 300.468 226.652 300.468C221.129 300.468 216.652 295.99 216.652 290.468V261.12C216.652 255.597 221.129 251.12 226.652 251.12 231.926 251.12 236.217 246.828 236.217 241.554S231.926 231.989 226.652 231.989C221.129 231.989 216.652 227.512 216.652 221.989V192.64C216.652 187.117 221.129 182.64 226.652 182.64 231.926 182.64 236.217 178.349 236.217 173.075S231.926 163.51 226.652 163.51C221.129 163.51 216.652 159.033 216.652 153.51V99.198C216.652 98.708 216.688 98.219 216.76 97.734 217.261 94.344 214.927 85.571 208.488 80.158 203.341 75.831 197.116 74.961 189.46 77.493 183.923 79.325 178.646 82.889 174.198 87.801 154.043 110.056 132.941 118.682 107.789 114.94A10 10 0 0 1 99.26 105.049V58.102A10 10 0 0 1 110.477 48.176C126.365 50.124 140.797 44.134 157.288 28.755A55 55 0 0 1 183.69 15.114C211.791 9.315 234.907 15.096 252.394 32.3 256.331 36.173 256.383 42.505 252.509 46.442S242.304 50.43 238.367 46.557C225.58 33.977 209.489 30.211 187.732 34.701A35 35 0 0 0 170.928 43.381C153.618 59.524 136.949 67.672 119.26 68.477V95.777C133.818 95.636 146.197 88.926 159.373 74.376 166.135 66.909 174.366 61.421 183.176 58.506 197.352 53.814 210.912 56.068 221.357 64.85 232.998 74.637 237.792 89.647 236.651 99.832V145.251C248.047 149.359 256.216 160.281 256.216 173.075S248.047 196.791 236.651 200.9V213.729C248.047 217.837 256.216 228.76 256.216 241.554S248.047 265.27 236.651 269.38V282.208C248.047 286.316 256.216 297.238 256.216 310.032S248.047 333.748 236.651 337.856V382.266C236.651 405.003 249.452 427.155 260.191 441.734 264.908 448.138 270.325 453.849 276.293 458.711 280.575 462.198 281.219 468.497 277.731 472.779A9.98 9.98 0 0 1 269.973 476.463" fill="#ffffff" data-fill-palette-color="quaternary"></path></g><g fill="#ffffff" data-fill-palette-color="quaternary"><path d="M321.43 498.39C315.94 497.781 311.98 492.83 312.59 487.35 313.2 481.85 318.15 477.9 323.64 478.51S333.08 484.07 332.47 489.56C331.9 494.67 327.57 498.451 322.55 498.451 322.18 498.45 321.8 498.43 321.43 498.39M369.74 483.45A10 10 0 0 1 368.88 479.45C368.87 475.59 371.09 471.91 374.84 470.26 379.89 468.02 385.8 470.3 388.03 475.36A10 10 0 0 1 388.889 479.35C388.899 483.21 386.679 486.89 382.929 488.55 381.609 489.13 380.24 489.4 378.889 489.4 375.05 489.399 371.39 487.18 369.74 483.45" fill="#ffffff" data-fill-palette-color="quaternary"></path></g></g><g fill="#ffffff" data-fill-palette-color="quaternary"><path d="M226.652 202.64C210.35 202.64 197.087 189.377 197.087 173.075S210.35 143.51 226.652 143.51 256.217 156.773 256.217 173.075 242.955 202.64 226.652 202.64M226.652 163.51C221.378 163.51 217.087 167.801 217.087 173.075S221.378 182.64 226.652 182.64 236.217 178.349 236.217 173.075 231.926 163.51 226.652 163.51" fill="#ffffff" data-fill-palette-color="quaternary"></path></g><g fill="#ffffff" data-fill-palette-color="quaternary"><path d="M226.652 271.119C210.35 271.119 197.087 257.855 197.087 241.553S210.35 211.988 226.652 211.988 256.217 225.251 256.217 241.553 242.955 271.119 226.652 271.119M226.652 231.988C221.378 231.988 217.087 236.279 217.087 241.553S221.378 251.119 226.652 251.119 236.217 246.827 236.217 241.553 231.926 231.988 226.652 231.988" fill="#ffffff" data-fill-palette-color="quaternary"></path></g><g fill="#ffffff" data-fill-palette-color="quaternary"><path d="M226.652 339.596C210.35 339.596 197.087 326.333 197.087 310.032S210.35 280.468 226.652 280.468 256.217 293.731 256.217 310.032 242.955 339.596 226.652 339.596M226.652 300.467C221.378 300.467 217.087 304.758 217.087 310.031S221.378 319.595 226.652 319.595 236.217 315.304 236.217 310.031 231.926 300.467 226.652 300.467" fill="#ffffff" data-fill-palette-color="quaternary"></path></g><g fill="#ffffff" data-fill-palette-color="quaternary"><path d="M314.695 146.052H285.347C279.825 146.052 275.347 141.575 275.347 136.052S279.825 126.052 285.347 126.052H314.695C320.217 126.052 324.695 130.529 324.695 136.052S320.218 146.052 314.695 146.052" fill="#ffffff" data-fill-palette-color="quaternary"></path></g><g fill="#ffffff" data-fill-palette-color="quaternary"><path d="M314.695 196.052H285.347C279.825 196.052 275.347 191.575 275.347 186.052S279.825 176.052 285.347 176.052H314.695C320.217 176.052 324.695 180.529 324.695 186.052S320.218 196.052 314.695 196.052" fill="#ffffff" data-fill-palette-color="quaternary"></path></g><g fill="#ffffff" data-fill-palette-color="quaternary"><path d="M314.695 246.052H285.347C279.825 246.052 275.347 241.575 275.347 236.052S279.825 226.052 285.347 226.052H314.695C320.217 226.052 324.695 230.529 324.695 236.052S320.218 246.052 314.695 246.052" fill="#ffffff" data-fill-palette-color="quaternary"></path></g><g fill="#ffffff" data-fill-palette-color="quaternary"><path d="M321 256.052C315.478 256.052 311 251.575 311 246.052V226.052C311 220.529 315.478 216.052 321 216.052S331 220.529 331 226.052V246.052C331 251.575 326.522 256.052 321 256.052" fill="#ffffff" data-fill-palette-color="quaternary"></path></g><g fill="#ffffff" data-fill-palette-color="quaternary"><path d="M321 206.052C315.478 206.052 311 201.575 311 196.052V176.052C311 170.529 315.478 166.052 321 166.052S331 170.529 331 176.052V196.052C331 201.575 326.522 206.052 321 206.052" fill="#ffffff" data-fill-palette-color="quaternary"></path></g><g fill="#ffffff" data-fill-palette-color="quaternary"><path d="M321 156.052C315.478 156.052 311 151.575 311 146.052V126.052C311 120.529 315.478 116.052 321 116.052S331 120.529 331 126.052V146.052C331 151.575 326.522 156.052 321 156.052" fill="#ffffff" data-fill-palette-color="quaternary"></path></g><g fill="#ffffff" data-fill-palette-color="quaternary"><path d="M411.494 207.018A24.8 24.8 0 0 1 401.247 204.813C392.29 200.786 386.501 191.833 386.501 182.005 386.501 178.459 387.241 175.012 388.702 171.762 392.731 162.8 401.684 157.009 411.513 157.009 415.062 157.009 418.509 157.751 421.76 159.214 430.717 163.241 436.507 172.195 436.507 182.022 436.507 185.567 435.766 189.013 434.305 192.265A25.05 25.05 0 0 1 411.494 207.018M411.513 177.01A5.013 5.013 0 0 0 406.502 182.006 5.015 5.015 0 0 0 411.495 187.019 5.013 5.013 0 0 0 416.507 182.023 5.01 5.01 0 0 0 413.554 177.455 4.9 4.9 0 0 0 411.513 177.01" fill="#ffffff" data-fill-palette-color="quaternary"></path></g><g fill="#ffffff" data-fill-palette-color="quaternary"><path d="M470.761 202.285L454.161 191.129 454.049 191.3C454.509 190.543 454.925 189.17 454.756 188.647 454.653 188.329 453.783 187.249 451.027 186.079 446.584 184.193 443.144 181.55 440.513 178.461L434.304 192.267C432.039 197.303 426.122 199.552 421.082 197.286 416.045 195.021 413.798 189.101 416.063 184.064L434.52 143.023C436.619 138.356 441.904 136.023 446.763 137.625A10 10 0 0 1 453.414 149.235C453.394 149.333 450.608 164.175 458.838 167.667 468.813 171.9 472.551 178.319 473.93 182.959 476.855 192.805 471.394 201.343 470.761 202.285" fill="#ffffff" data-fill-palette-color="quaternary"></path></g><g fill="#ffffff" data-fill-palette-color="quaternary"><path d="M68.624 436.052C54.979 436.052 44.004 425.364 43.639 411.721A26 26 0 0 1 43.63 411.045C43.63 397.401 54.318 386.427 67.961 386.061 68.175 386.054 68.406 386.052 68.637 386.052 82.283 386.052 93.257 396.74 93.622 410.383 93.628 410.62 93.631 410.841 93.631 411.06 93.631 424.705 82.943 435.679 69.299 436.043 69.086 436.05 68.854 436.052 68.624 436.052M68.636 406.052L68.515 406.053C65.813 406.125 63.63 408.365 63.63 411.045L63.632 411.202C63.703 413.868 65.943 416.052 68.624 416.052L68.745 416.051C71.447 415.979 73.63 413.74 73.63 411.06L73.628 410.902C73.556 408.234 71.317 406.052 68.636 406.052" fill="#ffffff" data-fill-palette-color="quaternary"></path></g><g fill="#ffffff" data-fill-palette-color="quaternary"><path d="M83.62 420.65C78.221 420.65 73.774 416.347 73.628 410.918L72.425 365.936A10 10 0 0 1 92.143 363.323C92.167 363.418 95.993 377.577 104.649 377.577 104.777 377.577 104.905 377.574 105.035 377.568 115.861 377.048 122.014 381.207 125.271 384.787 132.182 392.384 130.971 402.446 130.81 403.569L111.012 400.731 110.986 400.934C111.07 400.053 110.849 398.635 110.469 398.238 110.239 397.997 108.99 397.406 105.994 397.545 101.175 397.774 96.927 396.891 93.216 395.251L93.621 410.383C93.768 415.904 89.413 420.499 83.892 420.647z" fill="#ffffff" data-fill-palette-color="quaternary"></path></g><g fill="#ffffff" data-fill-palette-color="quaternary"><path d="M118.384 335.988C103.433 335.988 91.409 324.276 91.009 309.326 91.003 309.085 90.999 308.835 90.999 308.584 90.999 293.632 102.711 281.607 117.662 281.209 117.922 281.202 118.161 281.198 118.401 281.198 133.354 281.198 145.379 292.91 145.779 307.861 145.785 308.101 145.789 308.352 145.789 308.603 145.789 323.555 134.077 335.58 119.126 335.978 118.864 335.985 118.623 335.988 118.384 335.988M118.402 301.198L118.177 301.202A7.345 7.345 0 0 0 111 308.584L111.002 308.781C111.108 312.76 114.42 315.988 118.384 315.988L118.614 315.985C122.56 315.88 125.789 312.568 125.789 308.603L125.787 308.407C125.679 304.36 122.435 301.198 118.402 301.198" fill="#ffffff" data-fill-palette-color="quaternary"></path></g><g fill="#ffffff" data-fill-palette-color="quaternary"><path d="M135.778 318.129C130.379 318.129 125.932 313.826 125.786 308.397L124.391 256.231A10 10 0 0 1 144.109 253.618C144.144 253.758 148.831 271.935 160.689 271.361 172.618 270.791 179.35 275.312 182.897 279.211 190.42 287.479 189.097 298.465 188.921 299.69L169.123 296.852 169.101 297.021C169.198 296.091 169.076 293.698 168.076 292.64 167.163 291.675 164.762 291.19 161.649 291.337 155.311 291.644 149.864 290.189 145.239 287.657L145.78 307.86C145.927 313.381 141.572 317.976 136.051 318.124A6 6 0 0 1 135.778 318.129" fill="#ffffff" data-fill-palette-color="quaternary"></path></g><g fill="#ffffff" data-fill-palette-color="quaternary"><path d="M415.983 116.052A24.9 24.9 0 0 1 402.47 112.074C395.286 107.452 390.996 99.587 390.996 91.035 390.996 86.242 392.37 81.57 394.971 77.526 399.596 70.338 407.461 66.047 416.012 66.047 420.809 66.047 425.481 67.422 429.525 70.025 436.709 74.647 441 82.512 441 91.064 441 95.859 439.625 100.532 437.023 104.576 432.401 111.762 424.536 116.052 415.983 116.052M416.013 86.048A5 5 0 0 0 411.792 88.346 4.9 4.9 0 0 0 410.997 91.035C410.997 92.752 411.855 94.33 413.293 95.255A4.9 4.9 0 0 0 415.983 96.052 4.99 4.99 0 0 0 420.202 93.756C420.732 92.933 421 92.027 421 91.064A4.99 4.99 0 0 0 418.704 86.846 4.9 4.9 0 0 0 416.013 86.048" fill="#ffffff" data-fill-palette-color="quaternary"></path></g><g fill="#ffffff" data-fill-palette-color="quaternary"><path d="M424.104 88.436A9.95 9.95 0 0 1 418.704 86.845L380.857 62.5A10 10 0 0 1 389.805 44.737C389.901 44.771 404.164 49.732 408.839 42.111 411.729 37.404 417.884 35.929 422.593 38.818 427.3 41.707 428.775 47.864 425.886 52.571 423.362 56.685 420.237 59.694 416.791 61.836L429.522 70.026C434.167 73.014 435.51 79.201 432.522 83.846A9.99 9.99 0 0 1 424.104 88.436" fill="#ffffff" data-fill-palette-color="quaternary"></path></g><g fill="#ffffff" data-fill-palette-color="quaternary"><path d="M171 466.053C154.458 466.053 141 452.595 141 436.053S154.458 406.053 171 406.053 201 419.511 201 436.053 187.542 466.053 171 466.053M171 426.053C165.486 426.053 161 430.539 161 436.053S165.486 446.053 171 446.053 181 441.567 181 436.053 176.514 426.053 171 426.053" fill="#ffffff" data-fill-palette-color="quaternary"></path></g><g fill="#ffffff" data-fill-palette-color="quaternary"><path d="M86 226.052C66.701 226.052 51 210.351 51 191.052S66.701 156.052 86 156.052 121 171.753 121 191.052 105.299 226.052 86 226.052M86 176.052C77.729 176.052 71 182.781 71 191.052S77.729 206.052 86 206.052 101 199.323 101 191.052 94.271 176.052 86 176.052" fill="#ffffff" data-fill-palette-color="quaternary"></path></g></g></g></g></svg></g></svg></g><g id="text-0"><path d="M7.707 99.258l24.007 7.686-0.821 2.566-24.008-7.685-1.612 5.038-2.368-0.758 4.053-12.662 2.368 0.758z" fill="#ffffff" data-fill-palette-color="primary"></path><path d="M36.349 95.708v0c-0.596 1.316-1.337 2.174-2.224 2.574-0.893 0.396-2.015 0.288-3.368-0.325v0l-13.596-6.156 1.021-2.256 13.796 6.247c0.574 0.26 1.08 0.267 1.518 0.022 0.436-0.239 0.841-0.773 1.216-1.6v0c0.377-0.833 0.566-1.628 0.567-2.385 0.003-0.763-0.183-1.404-0.559-1.923v0l-13.86-6.276 1.042-2.301 17.184 7.781-1.042 2.301-1.622-0.734-0.213 0.471c0.867 1.331 0.914 2.852 0.14 4.56z" fill="#ffffff" data-fill-palette-color="primary"></path><path d="M29.633 75.401l12.926 8.08-1.328 2.125-15.995-9.999 1.328-2.125 1.493 0.933 0.316-0.506c-0.331-0.684-0.473-1.394-0.427-2.131 0.05-0.743 0.338-1.536 0.866-2.379v0c0.773-1.237 1.62-1.985 2.541-2.246 0.919-0.27 2.017-0.006 3.293 0.792v0l12.673 7.922-1.318 2.108-12.858-8.038c-0.545-0.341-1.049-0.417-1.511-0.229-0.465 0.194-0.937 0.673-1.414 1.438v0c-0.481 0.77-0.771 1.527-0.869 2.271-0.103 0.741-0.009 1.402 0.284 1.984z" fill="#ffffff" data-fill-palette-color="primary"></path><path d="M53.76 68.441v0c-1.361 1.636-2.592 2.591-3.692 2.866-1.096 0.27-2.253-0.06-3.472-0.989v0c-0.768-0.57-1.655-1.261-2.661-2.073-1.006-0.812-2.005-1.643-2.996-2.493-0.991-0.851-1.841-1.606-2.551-2.266v0c-1.16-1.052-1.698-2.151-1.615-3.298 0.078-1.151 0.783-2.526 2.115-4.126v0c1.26-1.513 2.424-2.394 3.493-2.643 1.068-0.258 2.213 0.061 3.434 0.957v0c0.364 0.277 0.985 0.764 1.864 1.46 0.883 0.701 1.779 1.494 2.689 2.381v0l-5.942 7.138c0.627 0.522 1.268 1.047 1.924 1.575 0.646 0.529 1.331 1.069 2.054 1.62v0c0.554 0.444 1.105 0.549 1.653 0.315 0.548-0.234 1.21-0.817 1.986-1.75v0c0.772-0.927 1.21-1.666 1.316-2.217 0.105-0.551-0.098-1.074-0.61-1.568v0c-0.52-0.484-1.266-1.106-2.239-1.864v0l1.539-1.85c0.329 0.196 0.682 0.455 1.06 0.779 0.378 0.323 0.713 0.62 1.006 0.889v0c1.118 1.051 1.667 2.112 1.647 3.182-0.02 1.07-0.687 2.395-2.002 3.975zM42.844 64.038v0l4.428-5.319c-0.656-0.58-1.292-1.127-1.908-1.64-0.617-0.513-1.056-0.845-1.32-0.995v0c-0.528-0.371-1.06-0.451-1.597-0.242-0.536 0.209-1.165 0.747-1.885 1.613v0c-0.802 0.963-1.267 1.74-1.397 2.33-0.13 0.591 0.049 1.097 0.534 1.519v0c0.55 0.51 1.084 0.988 1.6 1.435 0.517 0.456 1.032 0.889 1.545 1.299z" fill="#ffffff" data-fill-palette-color="primary"></path><path d="M65.001 57.143v0c-1.754 1.588-3.266 2.443-4.534 2.563-1.268 0.12-2.514-0.451-3.738-1.714v0c-4.279-4.371-8.383-8.904-12.313-13.6v0c-1.028-1.224-1.439-2.493-1.233-3.806 0.206-1.313 1.167-2.746 2.882-4.299v0c1.774-1.606 3.322-2.494 4.645-2.663 1.323-0.169 2.59 0.382 3.804 1.653v0c0.309 0.302 0.672 0.683 1.09 1.146 0.423 0.467 0.836 0.938 1.24 1.413 0.413 0.476 0.761 0.88 1.045 1.213v0l-1.998 1.809c-0.55-0.637-1.157-1.327-1.819-2.069-0.662-0.742-1.289-1.413-1.878-2.015v0c-0.53-0.566-1.14-0.761-1.83-0.584-0.694 0.172-1.611 0.774-2.751 1.807v0c-1.042 0.943-1.673 1.743-1.893 2.398-0.225 0.651-0.089 1.274 0.407 1.872v0c4.141 4.89 8.441 9.639 12.9 14.249v0c0.536 0.543 1.144 0.74 1.823 0.59 0.674-0.154 1.542-0.712 2.603-1.673v0c1.199-1.086 1.926-1.972 2.181-2.658 0.255-0.696 0.142-1.34-0.341-1.932v0c-0.58-0.7-1.232-1.425-1.955-2.174-0.723-0.749-1.402-1.445-2.036-2.086v0l2.042-1.849c0.654 0.624 1.284 1.261 1.89 1.91 0.606 0.65 1.191 1.336 1.756 2.059v0c1.12 1.356 1.526 2.688 1.217 3.995-0.304 1.304-1.373 2.785-3.206 4.445z" fill="#ffffff" data-fill-palette-color="primary"></path><path d="M66.577 36.123l8.644 12.556-2.064 1.421-10.697-15.537 2.064-1.421 0.998 1.449 0.442-0.304c-0.086-0.721 0-1.385 0.26-1.99 0.259-0.605 0.73-1.143 1.413-1.613v0c1.021-0.703 1.963-0.953 2.827-0.751 0.865 0.193 1.753 0.95 2.663 2.272v0c0.199 0.289 0.423 0.638 0.672 1.046 0.249 0.408 0.459 0.783 0.629 1.124v0l-1.974 1.359c-0.053-0.124-0.169-0.322-0.348-0.593-0.175-0.266-0.355-0.533-0.539-0.8-0.179-0.271-0.302-0.456-0.37-0.554v0c-0.541-0.786-1.041-1.231-1.498-1.335-0.459-0.094-0.981 0.06-1.565 0.462v0c-1.245 0.857-1.764 1.927-1.557 3.209z" fill="#ffffff" data-fill-palette-color="primary"></path><path d="M88.617 40.902v0c-1.401 0.725-2.579 0.988-3.534 0.788-0.958-0.206-1.798-0.864-2.522-1.975v0c-0.125-0.227-0.255-0.45-0.392-0.671-0.137-0.22-0.249-0.446-0.339-0.676v0c-0.451-1.058-0.573-2.081-0.367-3.068 0.2-0.984 0.936-2.172 2.209-3.562v0c0.529-0.565 1.102-1.123 1.72-1.674 0.612-0.548 1.224-1.089 1.836-1.622v0l-1.65-3.188c-0.293-0.565-0.721-0.873-1.285-0.925-0.561-0.046-1.368 0.204-2.422 0.75v0c-0.918 0.475-1.557 0.951-1.915 1.428-0.358 0.476-0.404 1.03-0.136 1.661v0c0.126 0.301 0.326 0.716 0.6 1.245 0.277 0.536 0.524 0.983 0.739 1.342v0l-2.155 1.115c-0.173-0.276-0.387-0.639-0.642-1.089-0.261-0.447-0.47-0.858-0.627-1.232v0c-0.63-1.361-0.691-2.546-0.183-3.556 0.499-1.012 1.631-1.975 3.398-2.889v0c1.849-0.957 3.298-1.3 4.348-1.03 1.053 0.276 1.965 1.144 2.736 2.603v0l6.651 12.849-2.173 1.124-0.818-1.58-0.477 0.246c0.007 0.72-0.178 1.372-0.555 1.956-0.374 0.575-1.056 1.118-2.045 1.63zM88.204 38.764v0c1.654-0.856 2.54-1.942 2.659-3.257v0l-2.702-5.219c-0.487 0.401-0.982 0.829-1.485 1.284-0.498 0.452-1.07 1.013-1.715 1.683v0c-0.75 0.829-1.163 1.546-1.238 2.152-0.08 0.609 0.01 1.223 0.271 1.842v0c0.103 0.171 0.21 0.354 0.319 0.551 0.11 0.197 0.232 0.399 0.369 0.604v0c0.366 0.505 0.862 0.786 1.488 0.842 0.626 0.056 1.305-0.104 2.034-0.482z" fill="#ffffff" data-fill-palette-color="primary"></path><path d="M95.7 19.299l5.818 15.649-2.321 0.863-5.818-15.649-1.696 0.63-0.756-2.031 1.697-0.631-0.794-2.134c-0.536-1.442-0.568-2.604-0.097-3.486 0.471-0.882 1.511-1.623 3.121-2.222v0c0.342-0.127 0.727-0.252 1.154-0.376 0.43-0.117 0.821-0.206 1.174-0.266v0l0.731 1.966c-0.666 0.205-1.406 0.459-2.22 0.762v0c-0.826 0.307-1.358 0.657-1.594 1.049-0.242 0.394-0.249 0.899-0.021 1.514v0l0.867 2.33 3.877-1.441 0.755 2.031z" fill="#ffffff" data-fill-palette-color="primary"></path><path d="M114.138 31.304v0c-1.944 0.53-3.347 0.566-4.207 0.107-0.854-0.461-1.483-1.43-1.886-2.908v0l-3.319-12.174-1.794 0.489-0.571-2.091 1.852-0.505-1.41-5.171 2.379-0.649 1.41 5.171 4.116-1.122 0.57 2.091-4.135 1.128 3.393 12.442c0.187 0.684 0.46 1.118 0.819 1.302 0.353 0.185 1.111 0.12 2.275-0.197v0c0.473-0.129 0.835-0.238 1.086-0.327 0.251-0.089 0.544-0.186 0.879-0.292v0l0.547 2.005c-0.287 0.133-0.602 0.26-0.947 0.382-0.34 0.113-0.692 0.22-1.057 0.319z" fill="#ffffff" data-fill-palette-color="primary"></path><path d="M129.451 20.419l0.544 8.125-2.709 0.182-1.85-27.632 4.851-0.324 2.583 11.028 2.052 13.835 0.735-0.049 0.179-13.984 1.109-11.276 4.831-0.324 1.851 27.631-2.709 0.182-0.544-8.126-0.674-17.056-0.833 0.055-0.784 17.314-0.882 7.962-3.502 0.235-1.916-7.775-3.106-17.053-0.813 0.054z" fill="#ffffff" data-fill-palette-color="primary"></path><path d="M151.673 28.584v0c-1.44-0.124-2.495-0.537-3.166-1.241-0.671-0.71-0.943-1.804-0.816-3.284v0l1.28-14.87 2.467 0.212-1.299 15.088c-0.054 0.627 0.108 1.107 0.485 1.439 0.371 0.331 1.008 0.536 1.914 0.614v0c0.911 0.078 1.724-0.008 2.437-0.259 0.72-0.251 1.263-0.64 1.628-1.167v0l1.304-15.158 2.517 0.216-1.618 18.794-2.516-0.217 0.152-1.773-0.515-0.044c-0.967 1.261-2.385 1.811-4.254 1.65z" fill="#ffffff" data-fill-palette-color="primary"></path><path d="M167.841 31.184v0c-2.031-0.455-3.368-1.097-4.011-1.927-0.643-0.83-0.829-2-0.56-3.509v0c0.068-0.392 0.152-0.832 0.255-1.318 0.102-0.487 0.217-0.909 0.345-1.268v0l2.222 0.497c-0.156 0.576-0.285 1.108-0.388 1.595-0.102 0.487-0.185 0.903-0.249 1.249v0c-0.142 0.695-0.007 1.228 0.406 1.599 0.413 0.371 1.231 0.693 2.453 0.967v0c1.249 0.28 2.158 0.344 2.729 0.193 0.57-0.151 0.953-0.568 1.146-1.252v0c0.134-0.418 0.232-0.733 0.293-0.943 0.059-0.204 0.126-0.502 0.2-0.893v0c0.106-0.656 0.046-1.192-0.18-1.609-0.224-0.424-0.824-0.823-1.8-1.198v0l-2.097-1.01c-1.085-0.494-1.893-0.995-2.426-1.501-0.54-0.501-0.87-1.075-0.99-1.719-0.122-0.639-0.105-1.413 0.051-2.322v0c0.063-0.462 0.203-0.953 0.422-1.475v0c0.368-1.521 1.026-2.518 1.974-2.992 0.95-0.48 2.483-0.484 4.598-0.01v0c2.031 0.455 3.369 1.094 4.013 1.918 0.646 0.817 0.842 1.972 0.59 3.464v0c-0.085 0.382-0.186 0.814-0.301 1.298-0.115 0.484-0.233 0.906-0.355 1.266v0l-2.29-0.513c0.165-0.432 0.307-0.93 0.427-1.494 0.121-0.571 0.204-1.017 0.249-1.341v0c0.136-0.669 0.009-1.18-0.381-1.532-0.39-0.352-1.199-0.666-2.428-0.941v0c-1.236-0.277-2.105-0.339-2.608-0.186-0.503 0.152-0.855 0.556-1.055 1.21v0c-0.084 0.314-0.162 0.572-0.235 0.773-0.072 0.201-0.143 0.488-0.212 0.86v0c-0.06 0.449-0.079 0.855-0.059 1.219 0.015 0.357 0.166 0.683 0.453 0.978 0.287 0.295 0.796 0.586 1.527 0.872v0l2.018 0.91c1.469 0.662 2.482 1.401 3.039 2.219 0.557 0.818 0.686 1.896 0.386 3.236v0c-0.062 0.278-0.132 0.575-0.21 0.89-0.07 0.311-0.15 0.608-0.241 0.894v0c-0.421 1.455-1.124 2.411-2.109 2.87-0.978 0.454-2.515 0.446-4.611-0.024z" fill="#ffffff" data-fill-palette-color="primary"></path><path d="M188.04 10.48l-0.857 2.66-2.385-0.768 0.857-2.66zM186.108 16.481l-5.782 17.956-2.404-0.774 5.781-17.956z" fill="#ffffff" data-fill-palette-color="primary"></path><path d="M200.25 29.758v0l-2.234-0.996c0.235-0.396 0.466-0.859 0.695-1.389 0.231-0.536 0.413-0.952 0.546-1.248v0c0.266-0.629 0.212-1.168-0.161-1.618-0.373-0.449-1.101-0.916-2.185-1.398v0c-1.114-0.497-1.96-0.732-2.538-0.707-0.578 0.026-1.011 0.347-1.301 0.966v0c-0.905 1.818-1.713 3.526-2.426 5.124-0.715 1.604-1.444 3.345-2.186 5.22v0c-0.277 0.653-0.234 1.209 0.127 1.668 0.362 0.459 1.093 0.934 2.196 1.425v0c1.084 0.483 1.923 0.709 2.518 0.677 0.595-0.032 1.043-0.37 1.344-1.012v0c0.143-0.321 0.319-0.707 0.527-1.159 0.208-0.451 0.41-0.96 0.605-1.527v0l2.234 0.996c-0.099 0.369-0.253 0.78-0.462 1.231-0.202 0.454-0.397 0.857-0.583 1.21v0c-0.696 1.366-1.58 2.177-2.652 2.433-1.066 0.258-2.537-0.032-4.414-0.869v0c-1.889-0.842-3.109-1.753-3.66-2.731-0.545-0.976-0.536-2.177 0.028-3.602v0c0.34-0.893 0.764-1.935 1.272-3.124 0.508-1.189 1.037-2.375 1.588-3.56 0.55-1.185 1.046-2.208 1.488-3.07v0c0.698-1.402 1.597-2.224 2.7-2.466 1.111-0.245 2.605 0.051 4.482 0.888v0c1.865 0.831 3.071 1.732 3.618 2.702 0.556 0.967 0.539 2.145-0.053 3.536v0c-0.135 0.368-0.304 0.779-0.506 1.233-0.196 0.457-0.399 0.846-0.607 1.167z" fill="#ffffff" data-fill-palette-color="primary"></path><path d="M211.019 51.531v0c-1.954-1.438-3.142-2.789-3.561-4.052-0.42-1.264-0.132-2.628 0.863-4.093v0c0.533-0.826 1.043-1.558 1.529-2.196 0.491-0.634 1.058-1.332 1.701-2.094v0l2.107 1.55c-0.648 0.758-1.26 1.534-1.837 2.328-0.58 0.8-1.117 1.585-1.611 2.358v0c-0.391 0.643-0.43 1.301-0.119 1.974 0.31 0.664 1.063 1.436 2.259 2.316v0c1.18 0.868 2.12 1.342 2.819 1.42 0.709 0.077 1.317-0.163 1.825-0.719v0c0.59-0.702 1.085-1.329 1.485-1.883 0.401-0.545 0.878-1.238 1.432-2.082v0c0.433-0.678 0.66-1.345 0.684-2.003 0.028-0.654-0.418-1.423-1.34-2.307v0l-1.934-2.052c-1.035-1.066-1.706-2.004-2.015-2.816-0.308-0.811-0.347-1.597-0.117-2.357 0.226-0.755 0.636-1.581 1.23-2.478v0c0.394-0.591 0.833-1.21 1.318-1.858 0.49-0.644 0.977-1.261 1.46-1.851v0c1.062-1.399 2.242-2.091 3.539-2.075 1.297 0.016 2.944 0.758 4.941 2.228v0c1.848 1.359 2.965 2.654 3.351 3.885 0.387 1.231 0.083 2.571-0.91 4.022v0c-0.329 0.515-0.765 1.129-1.305 1.842-0.545 0.718-1.116 1.45-1.714 2.195v0l-2.123-1.561c0.617-0.682 1.198-1.394 1.745-2.136 0.542-0.737 1.056-1.491 1.54-2.262v0c0.393-0.624 0.441-1.26 0.144-1.907-0.299-0.656-1.015-1.401-2.147-2.233v0c-1.18-0.868-2.125-1.345-2.835-1.432-0.712-0.096-1.312 0.133-1.802 0.687v0c-0.539 0.632-1.059 1.295-1.561 1.987-0.501 0.693-0.981 1.389-1.438 2.09v0c-0.519 0.795-0.782 1.499-0.788 2.111-0.012 0.609 0.474 1.369 1.457 2.282v0l1.933 1.953c1.05 1.044 1.727 1.982 2.029 2.813 0.298 0.837 0.33 1.638 0.095 2.404-0.234 0.766-0.646 1.582-1.234 2.45v0c-0.518 0.804-0.959 1.443-1.323 1.915-0.355 0.471-0.809 1.026-1.361 1.665v0c-1.124 1.371-2.338 2.053-3.642 2.049-1.305-0.005-2.894-0.697-4.769-2.077z" fill="#ffffff" data-fill-palette-color="primary"></path><path d="M236.014 57.133v0l-1.752-1.707c0.357-0.291 0.735-0.645 1.132-1.063 0.402-0.422 0.717-0.75 0.944-0.982v0c0.467-0.498 0.603-1.023 0.409-1.574-0.195-0.551-0.717-1.24-1.567-2.068v0c-0.874-0.851-1.586-1.365-2.136-1.54-0.551-0.176-1.069-0.024-1.556 0.456v0c-1.477 1.393-2.827 2.716-4.048 3.969-1.226 1.258-2.511 2.639-3.856 4.142v0c-0.486 0.517-0.638 1.054-0.458 1.609 0.181 0.556 0.703 1.254 1.567 2.096v0c0.85 0.828 1.559 1.33 2.129 1.506 0.57 0.175 1.107 0.014 1.612-0.485v0c0.245-0.252 0.544-0.553 0.895-0.905 0.352-0.351 0.717-0.759 1.095-1.223v0l1.752 1.707c-0.221 0.312-0.507 0.644-0.859 0.996-0.347 0.356-0.669 0.667-0.965 0.933v0c-1.126 1.041-2.236 1.496-3.33 1.365-1.089-0.127-2.37-0.907-3.841-2.341v0c-1.481-1.444-2.311-2.72-2.49-3.828-0.174-1.104 0.25-2.228 1.272-3.371v0c0.628-0.721 1.386-1.551 2.274-2.491 0.888-0.94 1.795-1.87 2.72-2.791 0.926-0.921 1.745-1.71 2.459-2.366v0c1.139-1.074 2.268-1.534 3.386-1.38 1.127 0.154 2.427 0.948 3.898 2.383v0c1.462 1.425 2.283 2.687 2.461 3.786 0.188 1.099-0.236 2.199-1.273 3.3v0c-0.254 0.299-0.554 0.626-0.901 0.982-0.342 0.361-0.667 0.656-0.973 0.885z" fill="#ffffff" data-fill-palette-color="primary"></path><path d="M243.303 61.29l-11.959 9.453-1.554-1.966 19.745-15.607 1.554 1.966-6.327 5.001 0.37 0.468c0.819-0.065 1.544 0.034 2.174 0.297 0.634 0.268 1.276 0.812 1.925 1.634v0c0.904 1.144 1.324 2.194 1.26 3.149-0.055 0.956-0.673 1.901-1.854 2.834v0l-11.725 9.268-1.541-1.95 11.896-9.403c0.504-0.399 0.746-0.847 0.724-1.346-0.026-0.503-0.319-1.109-0.878-1.816v0c-1.204-1.524-2.475-2.185-3.81-1.982z" fill="#ffffff" data-fill-palette-color="primary"></path><path d="M241.679 86.257v0c-1.071-1.815-1.517-3.281-1.336-4.396 0.181-1.115 0.981-2.126 2.401-3.034v0c0.782-0.554 1.668-1.138 2.66-1.754 0.997-0.619 2.013-1.219 3.048-1.799 1.041-0.584 1.999-1.087 2.873-1.511v0c1.475-0.801 2.748-1.01 3.821-0.627 1.067 0.386 2.133 1.482 3.198 3.286v0c1.075 1.821 1.517 3.281 1.325 4.379-0.197 1.101-1 2.107-2.411 3.016v0c-0.785 0.548-1.676 1.132-2.673 1.751-0.991 0.616-2.005 1.214-3.04 1.794-1.03 0.577-1.986 1.083-2.868 1.519v0c-1.472 0.792-2.738 1.008-3.797 0.648-1.059-0.36-2.126-1.451-3.201-3.272zM243.546 85.155v0c0.603 1.022 1.158 1.676 1.665 1.961 0.507 0.286 1.059 0.275 1.656-0.03v0c1.8-0.916 3.447-1.815 4.943-2.698 1.49-0.879 3.071-1.885 4.743-3.018v0c0.574-0.385 0.856-0.859 0.846-1.423-0.004-0.567-0.314-1.373-0.931-2.418v0c-0.62-1.05-1.179-1.717-1.677-2.001-0.492-0.287-1.046-0.272-1.66 0.044v0c-1.793 0.927-3.439 1.829-4.938 2.707-1.505 0.88-3.087 1.884-4.747 3.009v0c-0.563 0.363-0.837 0.844-0.822 1.444 0.015 0.599 0.322 1.407 0.922 2.423z" fill="#ffffff" data-fill-palette-color="primary"></path><path d="M248.447 100.164v0c-0.82-1.942-1.065-3.454-0.737-4.535 0.328-1.081 1.256-1.976 2.784-2.686v0c0.849-0.444 1.805-0.906 2.87-1.383 1.071-0.481 2.158-0.939 3.261-1.377 1.11-0.439 2.126-0.811 3.049-1.113v0c1.568-0.597 2.859-0.634 3.871-0.112 1.006 0.525 1.916 1.753 2.73 3.683v0c0.822 1.948 1.065 3.454 0.729 4.517-0.342 1.065-1.273 1.954-2.792 2.667v0c-0.851 0.438-1.812 0.898-2.883 1.379-1.065 0.478-2.149 0.935-3.252 1.372-1.097 0.434-2.112 0.809-3.045 1.123v0c-1.565 0.588-2.848 0.633-3.85 0.135-1.002-0.498-1.914-1.722-2.735-3.67zM250.444 99.321v0c0.461 1.093 0.924 1.815 1.389 2.166 0.465 0.351 1.013 0.414 1.645 0.191v0c1.906-0.667 3.659-1.339 5.259-2.014 1.594-0.673 3.295-1.459 5.103-2.358v0c0.62-0.305 0.963-0.737 1.028-1.297 0.072-0.563-0.128-1.403-0.599-2.521v0c-0.474-1.124-0.939-1.859-1.395-2.207-0.45-0.35-1-0.409-1.651-0.177v0c-1.901 0.68-3.652 1.354-5.255 2.023-1.609 0.672-3.311 1.455-5.107 2.349v0c-0.607 0.285-0.942 0.725-1.007 1.321-0.065 0.596 0.132 1.437 0.59 2.524z" fill="#ffffff" data-fill-palette-color="primary"></path><path d="M277.095 104.929l-24.02 7.513-0.754-2.41 24.02-7.514z" fill="#ffffff" data-fill-palette-color="primary"></path><path d="M12.946 144.403c0-1.768 1.433-3.202 3.202-3.201 1.768 0 3.202 1.433 3.202 3.201 0 1.768-1.433 3.202-3.202 3.202-1.768 0-3.202-1.433-3.202-3.202z" fill="#ffffff" data-fill-palette-color="primary"></path><path d="M263.533 144.403c0-1.768 1.433-3.202 3.202-3.201 1.768 0 3.202 1.433 3.201 3.201 0 1.768-1.433 3.202-3.201 3.202-1.768 0-3.202-1.433-3.202-3.202z" fill="#ffffff" data-fill-palette-color="primary"></path></g><g id="text-1"><path d="M37.753 179.93l-24.008 7.685-0.821-2.566 24.007-7.686-1.613-5.038 2.368-0.758 4.053 12.662-2.367 0.758z" fill="#ffffff" data-fill-palette-color="primary"></path><path d="M18.745 201.069v0c-0.596-1.316-0.752-2.439-0.466-3.369 0.291-0.932 1.113-1.705 2.465-2.317v0l13.597-6.156 1.021 2.255-13.796 6.247c-0.574 0.26-0.913 0.635-1.018 1.127-0.108 0.485 0.026 1.142 0.401 1.969v0c0.377 0.833 0.85 1.5 1.418 1.999 0.571 0.506 1.176 0.788 1.814 0.849v0l13.859-6.276 1.042 2.301-17.184 7.781-1.041-2.301 1.621-0.734-0.213-0.471c-1.573-0.227-2.746-1.195-3.52-2.904z" fill="#ffffff" data-fill-palette-color="primary"></path><path d="M39.487 207.246l-12.926 8.08-1.328-2.124 15.995-9.999 1.328 2.125-1.492 0.933 0.316 0.505c0.76 0.002 1.461 0.185 2.103 0.55 0.646 0.37 1.232 0.977 1.759 1.821v0c0.773 1.237 1.075 2.326 0.906 3.268-0.16 0.944-0.878 1.815-2.154 2.613v0l-12.674 7.922-1.317-2.108 12.858-8.038c0.545-0.341 0.834-0.76 0.868-1.257 0.029-0.503-0.195-1.137-0.673-1.902v0c-0.481-0.77-1.035-1.362-1.661-1.776-0.621-0.417-1.256-0.622-1.908-0.613z" fill="#ffffff" data-fill-palette-color="primary"></path><path d="M38.908 232.728v0c-1.361-1.636-2.077-3.019-2.148-4.15-0.066-1.126 0.468-2.205 1.602-3.236v0c0.7-0.651 1.54-1.398 2.521-2.24 0.981-0.842 1.979-1.674 2.996-2.494 1.016-0.82 1.914-1.519 2.691-2.098v0c1.245-0.95 2.424-1.28 3.536-0.99 1.118 0.286 2.342 1.229 3.674 2.829v0c1.26 1.513 1.915 2.818 1.965 3.915 0.06 1.097-0.462 2.165-1.564 3.203v0c-0.339 0.308-0.93 0.83-1.774 1.568-0.849 0.741-1.792 1.479-2.829 2.212v0l-5.942-7.138c-0.627 0.522-1.259 1.057-1.898 1.606-0.638 0.539-1.293 1.115-1.965 1.726v0c-0.537 0.464-0.74 0.987-0.61 1.569 0.13 0.581 0.584 1.338 1.36 2.27v0c0.772 0.927 1.419 1.493 1.942 1.696 0.523 0.203 1.074 0.098 1.653-0.315v0c0.571-0.423 1.317-1.045 2.239-1.864v0l1.539 1.85c-0.252 0.288-0.572 0.588-0.958 0.901-0.386 0.313-0.739 0.589-1.057 0.828v0c-1.236 0.908-2.379 1.256-3.428 1.042-1.049-0.214-2.231-1.11-3.545-2.69zM45.218 222.792v0l4.428 5.319c0.69-0.539 1.343-1.066 1.959-1.578 0.617-0.513 1.022-0.886 1.218-1.118v0c0.46-0.452 0.636-0.961 0.528-1.526-0.108-0.565-0.523-1.281-1.244-2.147v0c-0.802-0.963-1.481-1.562-2.039-1.796-0.558-0.235-1.088-0.151-1.59 0.25v0c-0.601 0.449-1.168 0.886-1.702 1.313-0.543 0.426-1.062 0.854-1.558 1.283z" fill="#ffffff" data-fill-palette-color="primary"></path><path d="M52.005 246.018v0c-1.754-1.588-2.754-3.008-2.999-4.258-0.245-1.25 0.2-2.547 1.334-3.889v0c3.925-4.691 8.03-9.225 12.313-13.6v0c1.116-1.144 2.338-1.679 3.666-1.604 1.327 0.075 2.848 0.889 4.563 2.441v0c1.774 1.606 2.811 3.059 3.11 4.358 0.299 1.299-0.124 2.616-1.268 3.949v0c-0.27 0.337-0.613 0.737-1.032 1.199-0.423 0.467-0.851 0.925-1.283 1.373-0.432 0.458-0.8 0.845-1.104 1.161v0l-1.998-1.809c0.58-0.611 1.206-1.282 1.878-2.015 0.672-0.733 1.279-1.422 1.82-2.069v0c0.511-0.584 0.644-1.21 0.399-1.878-0.24-0.673-0.93-1.526-2.07-2.559v0c-1.042-0.943-1.9-1.492-2.574-1.646-0.67-0.159-1.277 0.038-1.822 0.591v0c-4.455 4.605-8.755 9.355-12.901 14.249v0c-0.487 0.587-0.623 1.211-0.407 1.871 0.22 0.656 0.861 1.464 1.923 2.425v0c1.199 1.086 2.153 1.721 2.862 1.907 0.718 0.185 1.347 0.008 1.888-0.531v0c0.639-0.647 1.296-1.367 1.97-2.16 0.674-0.794 1.299-1.538 1.874-2.233v0l2.042 1.848c-0.556 0.713-1.127 1.403-1.714 2.071-0.586 0.667-1.211 1.318-1.874 1.951v0c-1.238 1.249-2.523 1.784-3.855 1.607-1.327-0.173-2.908-1.09-4.741-2.75z" fill="#ffffff" data-fill-palette-color="primary"></path><path d="M73.166 243.112l-8.644 12.556-2.064-1.421 10.697-15.537 2.064 1.421-0.998 1.45 0.442 0.304c0.643-0.338 1.294-0.494 1.952-0.467 0.658 0.026 1.328 0.275 2.01 0.744v0c1.021 0.703 1.591 1.494 1.711 2.373 0.128 0.877-0.262 1.976-1.172 3.298v0c-0.199 0.289-0.445 0.623-0.738 1.001-0.292 0.378-0.568 0.708-0.826 0.989v0l-1.973-1.359c0.097-0.094 0.24-0.273 0.43-0.537 0.186-0.258 0.371-0.521 0.555-0.789 0.19-0.264 0.318-0.445 0.386-0.543v0c0.541-0.786 0.779-1.412 0.712-1.876-0.076-0.463-0.406-0.895-0.99-1.297v0c-1.245-0.857-2.429-0.96-3.554-0.31z" fill="#ffffff" data-fill-palette-color="primary"></path><path d="M79.752 265.031v0c-1.401-0.725-2.296-1.535-2.683-2.43-0.385-0.901-0.333-1.967 0.156-3.2v0c0.113-0.233 0.22-0.468 0.321-0.707 0.101-0.239 0.22-0.461 0.356-0.667v0c0.604-0.979 1.368-1.669 2.293-2.071 0.919-0.405 2.314-0.489 4.184-0.253v0c0.766 0.106 1.553 0.252 2.36 0.438 0.801 0.183 1.596 0.371 2.385 0.562v0l1.65-3.188c0.293-0.565 0.297-1.093 0.013-1.583-0.287-0.484-0.957-0.999-2.011-1.545v0c-0.918-0.475-1.675-0.722-2.271-0.739-0.596-0.017-1.074 0.265-1.435 0.848v0c-0.173 0.276-0.396 0.679-0.671 1.209-0.277 0.536-0.5 0.995-0.668 1.378v0l-2.155-1.115c0.126-0.301 0.299-0.685 0.519-1.154 0.214-0.471 0.429-0.879 0.644-1.223v0c0.748-1.3 1.68-2.034 2.797-2.202 1.114-0.177 2.555 0.191 4.321 1.106v0c1.849 0.957 2.966 1.942 3.352 2.955 0.383 1.019 0.201 2.265-0.546 3.737v0l-6.651 12.849-2.173-1.124 0.819-1.581-0.477-0.247c-0.584 0.422-1.223 0.647-1.918 0.676-0.685 0.026-1.522-0.217-2.511-0.729zM81.259 263.46v0c1.654 0.856 3.052 0.953 4.195 0.29v0l2.701-5.219c-0.608-0.166-1.244-0.323-1.906-0.472-0.656-0.146-1.444-0.289-2.364-0.428v0c-1.11-0.134-1.934-0.057-2.472 0.232-0.544 0.286-0.993 0.714-1.347 1.284v0c-0.08 0.183-0.168 0.376-0.266 0.579-0.098 0.203-0.191 0.42-0.281 0.65v0c-0.201 0.59-0.144 1.157 0.172 1.701 0.316 0.544 0.838 1.005 1.568 1.383z" fill="#ffffff" data-fill-palette-color="primary"></path><path d="M100.761 255.894l-5.818 15.649-2.321-0.863 5.819-15.649-1.697-0.63 0.756-2.032 1.696 0.63 0.793-2.134c0.536-1.442 1.27-2.342 2.204-2.703 0.933-0.36 2.204-0.241 3.814 0.357v0c0.342 0.127 0.715 0.284 1.12 0.469 0.402 0.192 0.757 0.38 1.063 0.565v0l-0.732 1.967c-0.639-0.28-1.365-0.571-2.178-0.874v0c-0.826-0.307-1.457-0.39-1.892-0.247-0.441 0.14-0.776 0.518-1.005 1.133v0l-0.866 2.33 3.877 1.442-0.755 2.031z" fill="#ffffff" data-fill-palette-color="primary"></path><path d="M109.054 276.146v0c-1.944-0.53-3.171-1.212-3.679-2.044-0.502-0.831-0.551-1.985-0.148-3.463v0l3.32-12.174-1.794-0.489 0.57-2.091 1.851 0.505 1.41-5.171 2.38 0.649-1.41 5.17 4.115 1.123-0.57 2.091-4.135-1.127-3.393 12.442c-0.187 0.684-0.172 1.197 0.045 1.538 0.21 0.339 0.897 0.667 2.061 0.984v0c0.473 0.129 0.84 0.219 1.101 0.27 0.261 0.051 0.563 0.116 0.905 0.195v0l-0.546 2.005c-0.315-0.031-0.651-0.081-1.01-0.152-0.351-0.075-0.708-0.162-1.073-0.261z" fill="#ffffff" data-fill-palette-color="primary"></path><path d="M129.278 270.961l-0.544 8.126-2.709-0.181 1.851-27.632 4.852 0.325 1.088 11.275 0.19 13.985 0.734 0.049 2.043-13.836 2.602-11.027 4.832 0.324-1.851 27.631-2.708-0.181 0.544-8.126 1.607-16.994-0.834-0.056-3.086 17.054-1.935 7.774-3.503-0.235-0.862-7.961-0.803-17.314-0.814-0.055z" fill="#ffffff" data-fill-palette-color="primary"></path><path d="M153.33 279.476v0c-1.44 0.124-2.551-0.103-3.332-0.681-0.782-0.585-1.237-1.617-1.364-3.096v0l-1.28-14.871 2.467-0.212 1.298 15.088c0.054 0.627 0.295 1.072 0.724 1.335 0.422 0.263 1.085 0.356 1.99 0.278v0c0.911-0.078 1.697-0.302 2.358-0.672 0.667-0.37 1.135-0.846 1.404-1.428v0l-1.305-15.158 2.517-0.217 1.617 18.794-2.516 0.217-0.153-1.774-0.515 0.045c-0.737 1.407-2.04 2.192-3.91 2.352z" fill="#ffffff" data-fill-palette-color="primary"></path><path d="M172.063 276.48v0c-2.031 0.455-3.515 0.444-4.45-0.033-0.936-0.477-1.603-1.455-2.002-2.935v0c-0.106-0.384-0.217-0.818-0.332-1.301-0.115-0.484-0.191-0.915-0.229-1.294v0l2.222-0.497c0.104 0.588 0.214 1.124 0.33 1.607 0.115 0.484 0.218 0.896 0.307 1.236v0c0.168 0.689 0.518 1.114 1.049 1.273 0.532 0.159 1.409 0.102 2.632-0.171v0c1.249-0.28 2.099-0.609 2.55-0.989 0.452-0.38 0.619-0.92 0.503-1.621v0c-0.057-0.436-0.103-0.762-0.137-0.978-0.033-0.21-0.1-0.507-0.2-0.893v0c-0.184-0.638-0.467-1.098-0.849-1.379-0.384-0.288-1.097-0.393-2.139-0.316v0l-2.328-0.019c-1.192 0.016-2.137-0.092-2.834-0.323-0.702-0.223-1.245-0.601-1.629-1.133-0.383-0.526-0.697-1.233-0.944-2.122v0c-0.14-0.444-0.223-0.949-0.247-1.514v0c-0.316-1.532-0.146-2.715 0.509-3.548 0.654-0.839 2.039-1.496 4.155-1.97v0c2.031-0.455 3.514-0.447 4.448 0.023 0.933 0.464 1.603 1.424 2.011 2.882v0c0.085 0.382 0.179 0.816 0.281 1.302 0.102 0.487 0.175 0.919 0.219 1.297v0l-2.29 0.512c-0.035-0.461-0.119-0.972-0.252-1.533-0.134-0.568-0.249-1.007-0.346-1.319v0c-0.162-0.663-0.495-1.071-0.997-1.223-0.503-0.152-1.369-0.091-2.598 0.184v0c-1.236 0.277-2.048 0.591-2.438 0.943-0.39 0.352-0.536 0.867-0.439 1.546v0c0.058 0.32 0.097 0.586 0.118 0.799 0.02 0.213 0.078 0.502 0.174 0.868v0c0.137 0.431 0.293 0.807 0.466 1.128 0.166 0.316 0.442 0.546 0.828 0.691 0.386 0.145 0.97 0.19 1.753 0.138v0l2.213-0.037c1.611-0.028 2.842 0.209 3.695 0.711 0.853 0.502 1.429 1.422 1.729 2.761v0c0.062 0.278 0.126 0.576 0.19 0.895 0.07 0.311 0.124 0.614 0.163 0.911v0c0.24 1.495 0.011 2.66-0.684 3.496-0.691 0.827-2.085 1.476-4.181 1.945z" fill="#ffffff" data-fill-palette-color="primary"></path><path d="M178.395 248.372l0.856 2.66-2.385 0.768-0.856-2.659zM180.327 254.373l5.782 17.956-2.404 0.774-5.782-17.955z" fill="#ffffff" data-fill-palette-color="primary"></path><path d="M197.972 253.939v0l-2.234 0.996c-0.138-0.439-0.327-0.921-0.568-1.445-0.244-0.53-0.432-0.944-0.564-1.24v0c-0.29-0.618-0.727-0.939-1.311-0.962-0.584-0.023-1.417 0.207-2.501 0.69v0c-1.114 0.497-1.855 0.968-2.221 1.415-0.367 0.447-0.418 0.985-0.152 1.614v0c0.747 1.888 1.477 3.631 2.19 5.229 0.715 1.604 1.523 3.309 2.422 5.115v0c0.301 0.642 0.743 0.983 1.326 1.021 0.583 0.038 1.425-0.189 2.527-0.681v0c1.084-0.483 1.813-0.957 2.186-1.421 0.374-0.464 0.422-1.023 0.146-1.676v0c-0.143-0.321-0.313-0.71-0.509-1.166-0.196-0.457-0.44-0.947-0.732-1.471v0l2.234-0.996c0.208 0.321 0.411 0.71 0.607 1.167 0.202 0.454 0.373 0.868 0.511 1.242v0c0.551 1.431 0.563 2.63 0.036 3.598-0.521 0.965-1.719 1.866-3.596 2.703v0c-1.889 0.842-3.382 1.141-4.478 0.897-1.09-0.247-1.977-1.056-2.661-2.428v0c-0.437-0.85-0.928-1.862-1.473-3.035-0.545-1.173-1.074-2.359-1.587-3.56-0.514-1.201-0.943-2.254-1.289-3.159v0c-0.577-1.456-0.586-2.675-0.029-3.656 0.56-0.99 1.779-1.904 3.656-2.741v0c1.865-0.831 3.341-1.127 4.428-0.885 1.091 0.232 1.956 1.033 2.595 2.403v0c0.183 0.346 0.376 0.747 0.579 1.201 0.208 0.451 0.362 0.862 0.462 1.231z" fill="#ffffff" data-fill-palette-color="primary"></path><path d="M222.495 252.873v0c-1.954 1.438-3.597 2.169-4.929 2.194-1.331 0.025-2.548-0.656-3.651-2.043v0c-0.629-0.755-1.177-1.459-1.641-2.113-0.459-0.658-0.957-1.407-1.493-2.247v0l2.107-1.55c0.531 0.844 1.089 1.659 1.676 2.446 0.591 0.792 1.181 1.538 1.771 2.24v0c0.497 0.564 1.114 0.798 1.849 0.701 0.726-0.098 1.687-0.587 2.884-1.467v0c1.18-0.868 1.912-1.625 2.194-2.269 0.284-0.654 0.237-1.306-0.143-1.956v0c-0.494-0.772-0.946-1.431-1.356-1.978-0.401-0.545-0.921-1.207-1.561-1.987v0c-0.518-0.615-1.088-1.031-1.709-1.249-0.616-0.222-1.483-0.024-2.6 0.593v0l-2.536 1.235c-1.325 0.671-2.421 1.032-3.287 1.086-0.866 0.053-1.628-0.144-2.286-0.59-0.654-0.441-1.32-1.078-1.999-1.912v0c-0.447-0.552-0.908-1.155-1.381-1.81-0.469-0.659-0.913-1.308-1.333-1.946v0c-1.02-1.431-1.329-2.763-0.928-3.996 0.401-1.233 1.6-2.585 3.598-4.054v0c1.848-1.359 3.416-2.04 4.706-2.043 1.29-0.003 2.48 0.686 3.569 2.065v0c0.393 0.468 0.85 1.066 1.37 1.795 0.524 0.734 1.052 1.497 1.585 2.29v0l-2.122 1.561c-0.467-0.792-0.974-1.559-1.52-2.301-0.542-0.737-1.109-1.451-1.701-2.143v0c-0.479-0.561-1.071-0.796-1.777-0.705-0.715 0.09-1.639 0.552-2.772 1.385v0c-1.18 0.868-1.917 1.628-2.21 2.28-0.303 0.651-0.263 1.292 0.119 1.925v0c0.443 0.703 0.921 1.397 1.433 2.081 0.512 0.685 1.034 1.35 1.567 1.996v0c0.605 0.732 1.198 1.192 1.781 1.38 0.578 0.192 1.448-0.045 2.612-0.711v0l2.44-1.265c1.31-0.692 2.406-1.058 3.289-1.099 0.887-0.036 1.662 0.172 2.324 0.624 0.661 0.452 1.319 1.087 1.971 1.907v0c0.614 0.734 1.092 1.345 1.435 1.833 0.344 0.479 0.739 1.077 1.185 1.795v0c0.974 1.481 1.265 2.843 0.871 4.087-0.393 1.244-1.527 2.556-3.401 3.935z" fill="#ffffff" data-fill-palette-color="primary"></path><path d="M232.109 227.667v0l-1.752 1.707c-0.281-0.365-0.626-0.751-1.032-1.159-0.412-0.413-0.731-0.736-0.958-0.969v0c-0.486-0.48-1.007-0.629-1.563-0.449-0.555 0.18-1.258 0.685-2.108 1.513v0c-0.874 0.851-1.405 1.55-1.595 2.096-0.19 0.546-0.051 1.068 0.416 1.566v0c1.354 1.513 2.642 2.896 3.863 4.15 1.226 1.258 2.573 2.579 4.042 3.961v0c0.505 0.499 1.037 0.665 1.597 0.499 0.56-0.166 1.272-0.67 2.136-1.512v0c0.85-0.828 1.37-1.525 1.56-2.09 0.19-0.565 0.042-1.106-0.444-1.623v0c-0.245-0.252-0.539-0.558-0.881-0.918-0.342-0.361-0.741-0.736-1.195-1.127v0l1.752-1.707c0.306 0.229 0.631 0.524 0.973 0.885 0.347 0.356 0.65 0.686 0.909 0.989v0c1.012 1.152 1.438 2.273 1.278 3.363-0.155 1.086-0.968 2.346-2.439 3.78v0c-1.481 1.444-2.778 2.24-3.892 2.39-1.108 0.145-2.22-0.308-3.336-1.358v0c-0.704-0.647-1.515-1.426-2.431-2.338-0.916-0.912-1.823-1.842-2.721-2.791-0.897-0.949-1.665-1.789-2.302-2.519v0c-1.044-1.167-1.475-2.307-1.292-3.42 0.183-1.123 1.011-2.401 2.483-3.836v0c1.462-1.425 2.745-2.212 3.848-2.362 1.104-0.159 2.192 0.293 3.267 1.357v0c0.292 0.262 0.611 0.57 0.958 0.926 0.352 0.351 0.638 0.683 0.859 0.996z" fill="#ffffff" data-fill-palette-color="primary"></path><path d="M234.187 220.31l11.959 9.453-1.554 1.966-19.745-15.607 1.554-1.965 6.327 5 0.37-0.468c-0.252-0.782-0.323-1.51-0.213-2.183 0.114-0.679 0.496-1.429 1.145-2.251v0c0.904-1.144 1.829-1.795 2.773-1.953 0.943-0.167 2.005 0.216 3.186 1.149v0l11.725 9.268-1.542 1.95-11.896-9.403c-0.504-0.399-0.996-0.53-1.477-0.394-0.484 0.142-1.005 0.566-1.564 1.273v0c-1.204 1.524-1.554 2.912-1.048 4.165z" fill="#ffffff" data-fill-palette-color="primary"></path><path d="M258.321 212.371v0c-1.071 1.815-2.139 2.914-3.203 3.295-1.064 0.381-2.336 0.169-3.816-0.636v0c-0.863-0.417-1.803-0.91-2.821-1.48-1.024-0.574-2.04-1.173-3.049-1.8-1.014-0.629-1.918-1.224-2.71-1.784v0c-1.414-0.904-2.213-1.918-2.396-3.042-0.178-1.121 0.266-2.583 1.33-4.388v0c1.075-1.821 2.139-2.914 3.193-3.277 1.059-0.36 2.328-0.143 3.806 0.653v0c0.859 0.422 1.801 0.92 2.825 1.494 1.018 0.57 2.032 1.168 3.04 1.794 1.003 0.623 1.908 1.215 2.716 1.776v0c1.405 0.906 2.206 1.91 2.402 3.011 0.197 1.101-0.242 2.563-1.317 4.384zM256.454 211.27v0c0.603-1.022 0.907-1.824 0.912-2.407 0.005-0.582-0.271-1.06-0.827-1.435v0c-1.672-1.133-3.255-2.14-4.751-3.023-1.49-0.879-3.135-1.777-4.935-2.692v0c-0.614-0.316-1.165-0.334-1.654-0.053-0.495 0.278-1.051 0.939-1.667 1.983v0c-0.62 1.05-0.934 1.862-0.941 2.436-0.013 0.57 0.267 1.047 0.841 1.431v0c1.678 1.121 3.264 2.126 4.756 3.015 1.498 0.892 3.141 1.792 4.929 2.701v0c0.59 0.317 1.144 0.325 1.662 0.022 0.517-0.303 1.076-0.962 1.675-1.978z" fill="#ffffff" data-fill-palette-color="primary"></path><path d="M266.251 196.155v0c-0.82 1.942-1.731 3.173-2.734 3.692-1.003 0.519-2.292 0.479-3.867-0.12v0c-0.91-0.298-1.908-0.661-2.994-1.091-1.091-0.432-2.179-0.89-3.261-1.376-1.089-0.488-2.064-0.957-2.925-1.407v0c-1.522-0.707-2.449-1.605-2.781-2.695-0.326-1.087-0.081-2.596 0.734-4.526v0c0.822-1.948 1.731-3.173 2.726-3.673 1.002-0.498 2.288-0.452 3.859 0.139v0c0.908 0.304 1.907 0.672 2.999 1.103 1.085 0.429 2.169 0.887 3.253 1.372 1.077 0.483 2.053 0.949 2.928 1.398v0c1.513 0.711 2.441 1.598 2.783 2.664 0.342 1.065 0.102 2.572-0.72 4.52zM264.254 195.312v0c0.461-1.093 0.656-1.929 0.582-2.506-0.073-0.578-0.41-1.015-1.011-1.312v0c-1.808-0.899-3.512-1.687-5.112-2.362-1.594-0.673-3.344-1.343-5.25-2.01v0c-0.651-0.231-1.2-0.175-1.647 0.169-0.453 0.341-0.916 1.071-1.387 2.188v0c-0.474 1.124-0.677 1.97-0.607 2.539 0.063 0.566 0.405 1.002 1.024 1.307v0c1.813 0.887 3.518 1.672 5.116 2.352 1.604 0.684 3.352 1.357 5.246 2.02v0c0.627 0.236 1.177 0.169 1.649-0.2 0.472-0.369 0.938-1.097 1.397-2.185z" fill="#ffffff" data-fill-palette-color="primary"></path><path d="M247.062 174.483l24.02 7.514-0.754 2.41-24.02-7.513z" fill="#ffffff" data-fill-palette-color="primary"></path></g></svg></g></svg></g></svg></g><g></g></svg></g><defs></defs></svg><rect width="280" height="280" fill="none" stroke="none" visibility="hidden"></rect></g></svg></g></svg>